<svg id="visual" viewBox="0 0 1350 900" width="1350" height="900" xmlns="http://www.w3.org/2000/svg" xmlns:xlink="http://www.w3.org/1999/xlink" version="1.1"><rect x="0" y="0" width="1350" height="900" fill="#D8DF20"></rect><path d="M1158 900L1004 900L1004 831L1040 831L1040 762L1030 762L1030 692L968 692L968 623L1009 623L1009 554L1157 554L1157 485L1066 485L1066 415L1026 415L1026 346L963 346L963 277L1068 277L1068 208L1041 208L1041 138L1046 138L1046 69L979 69L979 0L1350 0L1350 69L1350 69L1350 138L1350 138L1350 208L1350 208L1350 277L1350 277L1350 346L1350 346L1350 415L1350 415L1350 485L1350 485L1350 554L1350 554L1350 623L1350 623L1350 692L1350 692L1350 762L1350 762L1350 831L1350 831L1350 900L1350 900Z" fill="#2720df"></path><path d="M1128 900L1174 900L1174 831L1095 831L1095 762L1084 762L1084 692L1086 692L1086 623L1230 623L1230 554L1167 554L1167 485L1213 485L1213 415L1189 415L1189 346L1144 346L1144 277L1160 277L1160 208L1258 208L1258 138L1258 138L1258 69L1088 69L1088 0L1350 0L1350 69L1350 69L1350 138L1350 138L1350 208L1350 208L1350 277L1350 277L1350 346L1350 346L1350 415L1350 415L1350 485L1350 485L1350 554L1350 554L1350 623L1350 623L1350 692L1350 692L1350 762L1350 762L1350 831L1350 831L1350 900L1350 900Z" fill="#1712ab"></path></svg>