<svg id="visual" viewBox="0 0 1350 900" width="1350" height="900" xmlns="http://www.w3.org/2000/svg" xmlns:xlink="http://www.w3.org/1999/xlink" version="1.1"><rect x="0" y="0" width="1350" height="900" fill="#2720DF"></rect><path d="M660 900L659.7 886.3C659.3 872.7 658.7 845.3 675.3 818C692 790.7 726 763.3 736 736.2C746 709 732 682 709.2 654.8C686.3 627.7 654.7 600.3 680.2 573C705.7 545.7 788.3 518.3 797.8 491C807.3 463.7 743.7 436.3 726 409C708.3 381.7 736.7 354.3 758.7 327C780.7 299.7 796.3 272.3 765.3 245.2C734.3 218 656.7 191 633.5 163.8C610.3 136.7 641.7 109.3 646.3 82C651 54.7 629 27.3 618 13.7L607 0L1350 0L1350 13.7C1350 27.3 1350 54.7 1350 82C1350 109.3 1350 136.7 1350 163.8C1350 191 1350 218 1350 245.2C1350 272.3 1350 299.7 1350 327C1350 354.3 1350 381.7 1350 409C1350 436.3 1350 463.7 1350 491C1350 518.3 1350 545.7 1350 573C1350 600.3 1350 627.7 1350 654.8C1350 682 1350 709 1350 736.2C1350 763.3 1350 790.7 1350 818C1350 845.3 1350 872.7 1350 886.3L1350 900Z" fill="#D8DF20" stroke-linecap="round" stroke-linejoin="miter"></path></svg>